<mxfile host="app.diagrams.net" modified="2021-08-27T13:08:40.437Z" agent="5.0 (Windows)" etag="R-HpO3yroUpUYZ2GoUSB" version="15.0.2" type="github">
  <diagram id="DeVc6nOlhxSPMMUo_RAu" name="Page-1">
    <mxGraphModel dx="868" dy="468" grid="1" gridSize="10" guides="1" tooltips="1" connect="1" arrows="1" fold="1" page="1" pageScale="1" pageWidth="827" pageHeight="1169" math="0" shadow="0">
      <root>
        <mxCell id="0" />
        <mxCell id="1" parent="0" />
        <mxCell id="87XZA6IXtHBNSDy3XtOM-1" value="" style="ellipse;whiteSpace=wrap;html=1;aspect=fixed;" vertex="1" parent="1">
          <mxGeometry x="210" y="110" width="40" height="40" as="geometry" />
        </mxCell>
        <mxCell id="87XZA6IXtHBNSDy3XtOM-2" value="" style="ellipse;whiteSpace=wrap;html=1;aspect=fixed;" vertex="1" parent="1">
          <mxGeometry x="220" y="160" width="40" height="40" as="geometry" />
        </mxCell>
        <mxCell id="87XZA6IXtHBNSDy3XtOM-3" value="" style="ellipse;whiteSpace=wrap;html=1;aspect=fixed;" vertex="1" parent="1">
          <mxGeometry x="230" y="230" width="40" height="40" as="geometry" />
        </mxCell>
        <mxCell id="87XZA6IXtHBNSDy3XtOM-4" value="" style="ellipse;whiteSpace=wrap;html=1;aspect=fixed;" vertex="1" parent="1">
          <mxGeometry x="160" y="140" width="40" height="40" as="geometry" />
        </mxCell>
        <mxCell id="87XZA6IXtHBNSDy3XtOM-5" value="" style="ellipse;whiteSpace=wrap;html=1;aspect=fixed;" vertex="1" parent="1">
          <mxGeometry x="170" y="350" width="40" height="40" as="geometry" />
        </mxCell>
        <mxCell id="87XZA6IXtHBNSDy3XtOM-6" value="" style="ellipse;whiteSpace=wrap;html=1;aspect=fixed;" vertex="1" parent="1">
          <mxGeometry x="170" y="200" width="40" height="40" as="geometry" />
        </mxCell>
        <mxCell id="87XZA6IXtHBNSDy3XtOM-7" value="" style="ellipse;whiteSpace=wrap;html=1;aspect=fixed;" vertex="1" parent="1">
          <mxGeometry x="180" y="260" width="40" height="40" as="geometry" />
        </mxCell>
        <mxCell id="87XZA6IXtHBNSDy3XtOM-8" value="" style="ellipse;whiteSpace=wrap;html=1;aspect=fixed;" vertex="1" parent="1">
          <mxGeometry x="90" y="240" width="40" height="40" as="geometry" />
        </mxCell>
        <mxCell id="87XZA6IXtHBNSDy3XtOM-9" value="" style="ellipse;whiteSpace=wrap;html=1;aspect=fixed;" vertex="1" parent="1">
          <mxGeometry x="80" y="110" width="40" height="40" as="geometry" />
        </mxCell>
        <mxCell id="87XZA6IXtHBNSDy3XtOM-10" value="" style="ellipse;whiteSpace=wrap;html=1;aspect=fixed;" vertex="1" parent="1">
          <mxGeometry x="90" y="290" width="40" height="40" as="geometry" />
        </mxCell>
        <mxCell id="87XZA6IXtHBNSDy3XtOM-11" value="" style="ellipse;whiteSpace=wrap;html=1;aspect=fixed;" vertex="1" parent="1">
          <mxGeometry x="90" y="190" width="40" height="40" as="geometry" />
        </mxCell>
        <mxCell id="87XZA6IXtHBNSDy3XtOM-12" value="" style="ellipse;whiteSpace=wrap;html=1;aspect=fixed;" vertex="1" parent="1">
          <mxGeometry x="90" y="370" width="40" height="40" as="geometry" />
        </mxCell>
        <mxCell id="87XZA6IXtHBNSDy3XtOM-13" value="" style="ellipse;whiteSpace=wrap;html=1;aspect=fixed;" vertex="1" parent="1">
          <mxGeometry x="230" y="290" width="40" height="40" as="geometry" />
        </mxCell>
      </root>
    </mxGraphModel>
  </diagram>
</mxfile>
